<?xml version="1.0" standalone="no"?>
<!DOCTYPE svg PUBLIC "-//W3C//DTD SVG 20010904//EN"
 "http://www.w3.org/TR/2001/REC-SVG-20010904/DTD/svg10.dtd">
<svg version="1.0" xmlns="http://www.w3.org/2000/svg"
 width="278.000000pt" height="278.000000pt" viewBox="0 0 278.000000 278.000000"
 preserveAspectRatio="xMidYMid meet">
<metadata>
Created by potrace 1.11, written by Peter Selinger 2001-2013
</metadata>
<g transform="translate(0.000000,278.000000) scale(0.100000,-0.100000)"
fill="#000000" stroke="none">
<path d="M1604 2765 c-17 -13 -16 -14 14 -4 20 7 80 10 154 7 66 -2 112 -1
102 3 -11 4 -71 8 -135 8 -87 1 -120 -3 -135 -14z"/>
<path d="M1524 2735 c2 -6 -9 -24 -26 -40 l-29 -28 -105 15 c-57 8 -104 11
-104 7 0 -4 9 -9 20 -12 17 -4 20 -11 14 -34 l-6 -28 24 28 c23 28 26 29 81
22 31 -4 59 -11 62 -15 7 -11 -24 -70 -37 -70 -5 0 -23 -11 -40 -25 -40 -34
-58 -32 -58 6 0 20 8 38 23 50 l22 18 -25 0 c-17 1 -32 -10 -47 -32 -13 -17
-23 -26 -23 -19 0 23 -21 12 -41 -23 -16 -27 -27 -35 -50 -35 -24 0 -29 4 -29
24 0 13 -7 29 -15 36 -16 13 -17 12 -19 -37 0 -21 -8 -31 -31 -40 -16 -6 -40
-12 -52 -12 -24 -1 -31 13 -13 24 6 3 10 15 10 26 0 31 -35 20 -36 -11 -1 -44
-3 -47 -54 -68 -30 -12 -50 -27 -50 -36 0 -12 -11 -16 -47 -17 -88 -1 -128
-12 -131 -37 -3 -18 1 -22 22 -22 13 0 32 -7 41 -16 14 -15 14 -18 0 -40 -8
-13 -11 -24 -5 -24 5 0 10 -5 10 -11 0 -6 -9 -8 -22 -4 -22 6 -22 6 -4 -9 11
-9 24 -16 29 -16 5 0 4 -7 -3 -15 -6 -8 -8 -20 -4 -26 4 -7 3 -9 -4 -5 -6 4
-11 -1 -11 -11 0 -10 -16 -63 -35 -118 -20 -55 -36 -110 -36 -123 0 -40 21
-19 45 43 13 36 30 64 43 71 12 6 30 18 40 27 27 24 31 21 22 -15 -26 -106
-17 -133 29 -84 13 14 33 26 45 28 11 2 21 10 22 18 1 30 17 51 59 75 42 25
75 32 75 16 0 -5 -13 -14 -30 -21 -16 -7 -30 -16 -30 -21 0 -5 31 8 69 28 78
40 188 61 162 30 -12 -15 -11 -17 3 -17 9 0 27 6 39 14 12 8 39 17 60 20 29 5
37 3 37 -9 0 -19 26 -19 34 0 4 12 24 15 86 15 45 0 80 -4 80 -10 0 -6 10 -6
27 1 18 6 36 6 55 0 18 -6 26 -7 23 -1 -4 6 3 10 15 10 12 0 18 5 15 10 -3 6
-28 10 -56 10 -44 0 -49 2 -50 23 l0 22 -16 -22 c-14 -20 -24 -23 -89 -23
l-73 0 4 30 c5 39 -11 39 -20 -1 l-7 -30 -91 3 c-51 2 -103 -1 -117 -5 -14 -5
3 9 38 31 78 49 141 69 170 53 17 -9 31 -5 84 26 67 39 122 46 181 24 16 -6
38 -11 50 -11 41 0 46 -11 38 -78 -4 -35 -5 -65 -2 -66 3 -2 38 2 78 8 l72 13
-14 -27 c-14 -26 -17 -27 -82 -24 -37 2 -79 6 -91 9 -14 3 -21 2 -18 -4 3 -5
24 -12 47 -16 29 -5 39 -11 35 -21 -7 -19 9 -18 39 2 30 20 31 12 4 -32 -30
-50 -1 -45 40 6 27 34 38 40 70 40 61 0 101 -11 101 -28 0 -28 41 -82 62 -82
14 0 18 -5 14 -16 -17 -44 -19 -67 -5 -62 8 2 15 20 17 38 2 20 14 44 28 57
30 28 34 28 34 4 0 -20 32 -39 38 -22 2 6 9 11 17 11 12 0 25 49 25 98 0 27
-33 62 -59 62 -20 0 -31 19 -31 54 0 13 -8 34 -18 47 -23 30 -33 67 -21 75 6
3 21 -1 34 -10 13 -9 30 -16 36 -16 7 0 21 -8 32 -17 17 -15 17 -13 -2 13 -14
19 -36 35 -55 38 -30 7 -30 8 -12 21 24 18 15 30 -12 16 -27 -14 -32 -14 -32
4 0 8 -7 15 -15 15 -8 0 -15 -9 -15 -20 0 -17 -7 -20 -45 -20 -45 0 -54 7 -34
27 8 8 8 13 0 17 -7 5 -8 13 -1 25 8 16 6 17 -18 13 l-27 -5 28 30 c15 16 27
34 27 40 0 15 62 26 70 13 4 -7 11 -5 20 5 7 8 10 18 6 22 -3 3 1 15 11 25 10
12 12 18 4 18 -14 0 -42 -25 -36 -32 3 -3 -1 -5 -8 -5 -6 0 -24 -4 -39 -8 -18
-5 -28 -3 -28 4 0 6 -9 11 -20 11 -19 0 -19 0 0 43 30 65 28 68 -35 61 -72 -9
-74 11 -2 25 l52 10 -55 -4 c-30 -2 -81 -15 -113 -28 -67 -28 -85 -42 -42 -33
50 10 195 19 195 12 0 -3 -14 -31 -31 -62 -29 -51 -34 -55 -60 -49 -24 5 -28
4 -23 -9 5 -12 0 -16 -19 -16 -14 0 -32 -6 -40 -14 -12 -13 -17 -11 -36 15
-26 35 -106 89 -132 89 -24 0 -35 20 -18 31 8 5 31 9 51 9 29 0 41 -5 53 -25
8 -14 23 -37 32 -52 25 -42 28 -10 3 41 -28 59 -70 75 -136 52 -46 -15 -129
-12 -140 5 -7 12 14 49 27 46 6 -1 17 7 24 18 13 19 12 20 -16 21 -20 1 -28
-3 -25 -11z m22 -106 c8 -14 -10 -26 -54 -34 -43 -8 -48 -3 -25 24 19 22 67
28 79 10z m153 -63 c36 -19 75 -62 63 -70 -6 -3 -37 -9 -71 -12 -57 -6 -60 -6
-55 13 5 18 1 21 -35 21 -23 0 -41 -3 -41 -9 0 -5 -12 -9 -27 -9 -26 1 -27 1
-8 13 28 17 87 37 108 37 10 0 15 5 12 10 -6 10 -69 4 -90 -9 -17 -10 -38 -13
-105 -18 -51 -4 -62 -2 -53 8 33 34 250 52 302 25z m296 -76 c-28 -30 -45 -38
-45 -22 0 15 41 52 57 52 13 0 10 -7 -12 -30z m-721 8 c-16 -28 -27 -38 -36
-32 -5 3 -2 14 8 25 19 21 39 26 28 7z m119 -4 c-6 -17 -33 -19 -33 -2 0 7 -6
6 -17 -4 -30 -25 -47 -33 -38 -17 18 31 27 37 60 37 25 0 32 -4 28 -14z m-203
-6 c0 -22 -17 -41 -29 -34 -15 10 -14 33 2 39 21 9 27 8 27 -5z m708 -12 c3
-14 -1 -17 -17 -11 -15 5 -21 2 -21 -9 0 -9 -7 -16 -15 -16 -8 0 -15 7 -15 15
0 8 7 15 15 15 9 0 18 7 22 15 7 20 27 14 31 -9z m-778 -11 c0 -8 0 -18 1 -22
0 -7 -83 -32 -109 -33 -10 0 -10 5 -2 20 8 16 8 18 -4 14 -8 -3 -17 -12 -20
-19 -3 -9 -20 -14 -48 -13 -43 1 -43 2 17 24 11 4 40 15 65 25 58 22 100 24
100 4z m646 -10 c-15 -16 -62 -20 -92 -8 -16 6 -16 7 2 14 10 4 38 8 62 8 39
1 42 -1 28 -14z m-506 -18 c0 -25 -24 -47 -40 -37 -13 9 -11 13 10 30 30 23
30 23 30 7z m220 8 c0 -7 -101 -57 -107 -52 -6 7 48 44 72 50 30 7 35 7 35 2z
m93 -15 c-20 -23 -43 -26 -43 -7 0 20 10 27 37 27 22 0 22 -1 6 -20z m78 4
c12 -14 11 -16 -5 -13 -11 2 -21 10 -24 17 -5 17 13 15 29 -4z m52 -35 c-4 -4
-25 -15 -46 -24 -37 -15 -38 -15 -35 2 2 10 13 19 26 21 12 2 22 7 22 12 0 4
9 6 21 3 11 -3 17 -9 12 -14z m-822 -20 c-13 -5 -35 -9 -50 -8 -14 1 -41 -2
-58 -6 -20 -4 -33 -4 -33 2 0 19 15 23 89 22 58 0 70 -2 52 -10z m195 4 c-3
-4 -22 -12 -41 -19 -28 -9 -35 -9 -35 1 0 13 21 21 64 24 11 0 16 -2 12 -6z
m494 -12 c13 -25 1 -33 -39 -25 -35 7 -39 18 -13 33 26 15 40 13 52 -8z m288
-19 c-9 -24 -18 -32 -37 -32 -25 0 -25 0 9 35 18 19 35 33 37 32 1 -2 -3 -18
-9 -35z m-98 8 c0 -11 -7 -20 -15 -20 -18 0 -19 12 -3 28 16 16 18 15 18 -8z
m-911 -26 c-9 -11 -15 -12 -23 -4 -8 8 -7 13 4 20 20 12 33 1 19 -16z m111 15
c0 -6 -10 -29 -22 -50 -15 -28 -28 -39 -45 -39 -28 0 -28 4 -2 46 27 44 69 70
69 43z m744 -3 c-6 -17 -50 -30 -66 -20 -6 4 -1 12 13 20 32 18 60 18 53 0z
m-599 -26 c-17 -32 -25 -36 -42 -19 -8 8 -13 8 -17 0 -4 -6 -15 -11 -26 -11
-13 0 -17 5 -13 19 6 23 38 39 81 40 l33 1 -16 -30z m110 -15 c1 -41 -2 -45
-23 -45 -13 0 -32 -5 -43 -10 -11 -6 -19 -7 -19 -1 0 12 39 59 40 47 0 -12 30
14 30 26 0 6 -7 5 -15 -2 -16 -14 -18 -10 -9 14 3 9 14 16 23 16 12 0 16 -10
16 -45z m218 36 c18 -7 18 -8 0 -30 -15 -18 -106 -59 -135 -61 -17 0 -6 28 20
52 49 46 76 55 115 39z m105 -16 c1 -1 -18 -12 -43 -25 -53 -27 -68 -20 -35
15 18 19 29 23 49 18 14 -3 27 -7 29 -8z m-699 -22 c0 -5 -4 -17 -9 -28 -8
-18 -9 -17 -9 8 -1 15 4 27 9 27 6 0 10 -3 9 -7z m244 -57 c-3 -17 -17 -44
-32 -59 l-26 -29 35 15 c19 8 53 26 74 41 21 14 46 26 55 26 10 0 26 7 37 15
29 22 42 18 37 -10 -4 -17 -15 -28 -39 -35 -19 -7 -57 -27 -85 -46 -39 -26
-63 -35 -104 -37 -35 -2 -61 -10 -75 -22 -29 -27 -34 -14 -16 47 18 60 63 115
98 120 45 7 47 6 41 -26z m756 20 c7 -8 28 -17 48 -21 l36 -7 -29 -19 c-16
-10 -36 -19 -45 -19 -9 0 -22 -7 -29 -15 -21 -25 -40 -18 -35 13 3 15 7 38 9
52 3 14 5 26 5 28 3 8 30 0 40 -12z m291 -17 c0 -6 -4 -7 -10 -4 -5 3 -10 11
-10 16 0 6 5 7 10 4 6 -3 10 -11 10 -16z m-1230 -14 c0 -3 -11 -28 -25 -55
-22 -43 -63 -86 -72 -76 -3 2 9 34 26 70 23 50 35 66 50 66 12 0 21 -2 21 -5z
m1030 -20 c0 -6 -62 -45 -72 -45 -19 0 -5 18 25 33 34 17 47 20 47 12z m98
-11 c14 -4 22 -14 22 -28 0 -30 -18 -46 -52 -46 -15 0 -28 -4 -28 -10 0 -5
-14 -10 -31 -10 l-30 0 43 50 c24 27 45 50 48 50 3 0 15 -3 28 -6z"/>
<path d="M1183 2713 c-10 -10 -14 -15 -8 -11 5 3 26 11 45 16 31 9 32 10 9 11
-15 1 -35 -7 -46 -16z"/>
<path d="M1126 2685 c-20 -21 -21 -46 -1 -39 15 6 31 42 22 50 -2 3 -12 -2
-21 -11z"/>
<path d="M781 2618 c1 -54 4 -50 23 25 5 20 3 27 -9 27 -12 0 -15 -12 -14 -52z"/>
<path d="M2230 2419 c-19 -17 -26 -26 -15 -21 11 6 32 15 48 21 15 6 27 15 27
21 0 18 -24 10 -60 -21z"/>
<path d="M707 2277 c-4 -10 -23 -25 -44 -33 -27 -12 -33 -18 -23 -24 8 -5 18
-6 22 -3 9 5 2 -86 -9 -117 -3 -12 -9 -10 -24 9 l-20 24 5 -89 c14 -236 16
-291 10 -321 -11 -56 -24 -25 -24 56 0 108 -10 171 -26 171 -17 0 -17 -3 1
-124 12 -83 13 -101 1 -110 -10 -9 -11 -25 -2 -88 7 -43 8 -78 3 -78 -5 0 -1
-7 7 -16 9 -8 16 -21 16 -28 0 -14 37 -49 63 -59 12 -5 17 -1 17 13 0 11 -3
20 -7 20 -11 0 -12 41 -13 285 0 128 4 211 10 213 6 2 10 54 10 123 0 75 4
119 10 119 12 0 32 48 27 64 -2 5 -6 2 -10 -7z m-88 -725 c1 -7 -3 -10 -9 -7
-5 3 -10 18 -9 33 0 24 1 25 9 7 5 -11 9 -26 9 -33z"/>
<path d="M2201 2256 c-10 -12 -8 -13 9 -9 25 7 37 23 17 23 -8 0 -20 -6 -26
-14z"/>
<path d="M538 2254 c-7 -6 5 -54 21 -81 9 -15 10 -12 11 19 0 54 -14 81 -32
62z"/>
<path d="M1432 2055 c-30 -14 -60 -25 -68 -25 -8 0 -14 -4 -14 -10 0 -14 5
-13 60 15 27 14 63 25 79 25 24 0 28 -3 24 -20 -4 -16 -2 -19 11 -14 9 3 16
17 16 30 0 32 -37 32 -108 -1z"/>
<path d="M969 2039 l-24 -20 28 17 c15 9 27 18 27 20 0 8 -8 4 -31 -17z"/>
<path d="M2267 1800 c-4 -19 -10 -47 -13 -62 -5 -21 -3 -28 9 -28 9 0 18 13
22 30 4 17 17 40 28 52 l22 21 -27 -5 c-19 -4 -28 0 -31 11 -1 9 -6 0 -10 -19z"/>
<path d="M2167 1801 c-5 -22 0 -31 20 -31 7 0 13 11 13 25 0 30 -25 34 -33 6z"/>
<path d="M962 1730 c-40 -11 -83 -27 -95 -36 -19 -14 -20 -16 -2 -9 85 32 146
45 206 45 60 0 80 -5 139 -35 39 -19 70 -33 70 -30 0 3 -37 24 -82 45 -94 46
-126 49 -236 20z"/>
<path d="M1672 1702 c-7 -5 37 -6 97 -4 87 4 115 1 142 -12 44 -22 50 -20 14
4 -25 17 -47 20 -135 20 -58 0 -111 -4 -118 -8z"/>
<path d="M2280 1585 c-7 -8 -8 -15 -2 -15 5 0 15 7 22 15 7 8 8 15 2 15 -5 0
-15 -7 -22 -15z"/>
<path d="M2144 1576 c-4 -10 -2 -22 4 -28 8 -8 13 -7 18 6 4 10 2 22 -4 28 -8
8 -13 7 -18 -6z"/>
<path d="M2205 1550 c-3 -6 1 -7 9 -4 18 7 21 14 7 14 -6 0 -13 -4 -16 -10z"/>
<path d="M2150 1520 c-8 -5 -12 -12 -9 -15 4 -3 12 1 19 10 14 17 11 19 -10 5z"/>
<path d="M1723 1503 c-21 -8 -15 -20 12 -27 31 -8 66 18 39 28 -18 7 -33 7
-51 -1z"/>
<path d="M1057 1480 c3 -13 14 -20 29 -20 26 0 30 10 12 28 -20 20 -47 15 -41
-8z"/>
<path d="M2216 1446 c-3 -13 -9 -31 -12 -40 -4 -11 0 -16 14 -16 18 0 20 5 15
38 -7 47 -9 49 -17 18z"/>
</g>
</svg>
